name GIL01_static.mot
datacolumns 141
datarows 4
range 0.00833333 0.03333334
endheader

                time	           pelvis_tx	           pelvis_ty	           pelvis_tz	         pelvis_tilt	         pelvis_list	     pelvis_rotation	       hip_flexion_r	     hip_adduction_r	      hip_rotation_r	        knee_angle_r	       ankle_angle_r	    subtalar_angle_r	         mtp_angle_r	       hip_flexion_l	     hip_adduction_l	      hip_rotation_l	        knee_angle_l	       ankle_angle_l	    subtalar_angle_l	         mtp_angle_l	    lumbar_extension	      lumbar_bending	     lumbar_rotation	    ground_marker_px	    ground_marker_py	    ground_marker_pz	    ground_marker_px	    ground_marker_py	    ground_marker_pz	    ground_marker_px	    ground_marker_py	    ground_marker_pz	    ground_marker_px	    ground_marker_py	    ground_marker_pz	    ground_marker_px	    ground_marker_py	    ground_marker_pz	    ground_marker_px	    ground_marker_py	    ground_marker_pz	    ground_marker_px	    ground_marker_py	    ground_marker_pz	    ground_marker_px	    ground_marker_py	    ground_marker_pz	    ground_marker_px	    ground_marker_py	    ground_marker_pz	    ground_marker_px	    ground_marker_py	    ground_marker_pz	    ground_marker_px	    ground_marker_py	    ground_marker_pz	    ground_marker_px	    ground_marker_py	    ground_marker_pz	    ground_marker_px	    ground_marker_py	    ground_marker_pz	    ground_marker_px	    ground_marker_py	    ground_marker_pz	    ground_marker_px	    ground_marker_py	    ground_marker_pz	    ground_marker_px	    ground_marker_py	    ground_marker_pz	    ground_marker_px	    ground_marker_py	    ground_marker_pz	    ground_marker_px	    ground_marker_py	    ground_marker_pz	    ground_marker_px	    ground_marker_py	    ground_marker_pz	    ground_marker_px	    ground_marker_py	    ground_marker_pz	    ground_marker_px	    ground_marker_py	    ground_marker_pz	    ground_marker_px	    ground_marker_py	    ground_marker_pz	    ground_marker_px	    ground_marker_py	    ground_marker_pz	    ground_marker_px	    ground_marker_py	    ground_marker_pz	    ground_marker_px	    ground_marker_py	    ground_marker_pz	    ground_marker_px	    ground_marker_py	    ground_marker_pz	    ground_marker_px	    ground_marker_py	    ground_marker_pz	    ground_marker_px	    ground_marker_py	    ground_marker_pz	    ground_marker_px	    ground_marker_py	    ground_marker_pz	    ground_marker_px	    ground_marker_py	    ground_marker_pz	    ground_marker_px	    ground_marker_py	    ground_marker_pz	    ground_marker_px	    ground_marker_py	    ground_marker_pz	    ground_marker_px	    ground_marker_py	    ground_marker_pz	    ground_marker_px	    ground_marker_py	    ground_marker_pz	    ground_marker_px	    ground_marker_py	    ground_marker_pz	    ground_marker_px	    ground_marker_py	    ground_marker_pz	    ground_marker_px	    ground_marker_py	    ground_marker_pz	    ground_marker_px	    ground_marker_py	    ground_marker_pz	    ground_marker_px	    ground_marker_py	    ground_marker_pz	
          0.00833333	          0.61234319	          0.80938673	         -0.25626153	         -4.08720779	          0.66477484	         -7.62852621	         -3.58193588	         -6.83667183	          2.27035856	         13.74362659	         -7.38694429	          0.00000000	          0.00000000	         -7.73735094	         -4.27080584	         -9.98824215	         12.80626583	         -2.93544483	          0.00000000	          0.00000000	          3.44551015	          5.53295374	          4.56674576	          0.53996599	          0.74310732	         -0.26408803	          0.53144741	          0.74478424	         -0.19951130	          0.54848456	          0.74143046	         -0.32866475	          0.47994325	          0.40656266	         -0.15610099	          0.48513326	          0.42416376	         -0.35316300	          0.51149595	          0.06686860	         -0.11945314	          0.49450994	          0.07028186	         -0.39080182	          0.61234319	          0.80938673	         -0.25626153	          0.59863418	          0.81208533	         -0.15233769	          0.62605226	          0.80668807	         -0.36018535	          0.45415565	          0.85569000	         -0.24468087	          0.45725518	          0.85381418	         -0.29965752	          0.47583094	          0.41416043	         -0.10178374	          0.48378468	          0.42862591	         -0.40746325	          0.48610896	          0.40669987	         -0.20798464	          0.49046758	          0.39984110	         -0.30557272	          0.49936798	          0.06955933	         -0.08407062	          0.48429114	          0.07377504	         -0.42619070	          0.51533991	          0.06581802	         -0.14200574	          0.49781477	          0.06650072	         -0.37236208	          0.47780746	          0.03744662	         -0.14391534	          0.43722361	          0.04131021	         -0.38094306	          0.55388743	          1.17210221	         -0.27303746	          0.59071791	          1.09329998	         -0.27434644	          0.46071544	          1.21879125	         -0.28772828	          0.56592393	          1.17186368	         -0.23326966	          0.56979126	          1.17719007	         -0.30822167	          0.60713655	          0.03662769	         -0.08499333	          0.59587747	          0.03884126	         -0.42057565	          0.59097618	          0.52864867	         -0.05693613	          0.65944022	          0.52620518	         -0.35599953	          0.52633965	          0.58850938	         -0.09860338	          0.59857041	          0.59756792	         -0.38271937	          0.51534426	          0.50132763	         -0.10664584	          0.57431716	          0.51337767	         -0.38541710	          0.46623239	          0.18530016	         -0.02154562	          0.49058938	          0.20553419	         -0.48788616	          0.48066273	          0.14453310	         -0.09198885	          0.47871238	          0.15837781	         -0.41923249	
          0.01666667	          0.61236489	          0.80937964	         -0.25625128	         -4.08630371	          0.66450542	         -7.62860012	         -3.58692074	         -6.83767700	          2.27883983	         13.74507904	         -7.38452625	          0.00000000	          0.00000000	         -7.74248886	         -4.27008104	         -9.99326229	         12.80910492	         -2.93458915	          0.00000000	          0.00000000	          3.51720786	          5.59094381	          4.18868065	          0.53998876	          0.74309909	         -0.26407745	          0.53147012	          0.74477619	         -0.19950075	          0.54850733	          0.74142206	         -0.32865417	          0.47994190	          0.40656254	         -0.15608725	          0.48513371	          0.42416704	         -0.35315013	          0.51147634	          0.06687440	         -0.11944224	          0.49450010	          0.07030013	         -0.39079884	          0.61236489	          0.80937964	         -0.25625128	          0.59865469	          0.81207877	         -0.15231895	          0.62607509	          0.80668050	         -0.36018363	          0.45417961	          0.85568571	         -0.24467281	          0.45726749	          0.85380101	         -0.29965645	          0.47583815	          0.41416007	         -0.10176933	          0.48378071	          0.42862993	         -0.40745023	          0.48603085	          0.40667433	         -0.20789245	          0.49076152	          0.39971659	         -0.30545405	          0.49935365	          0.06956620	         -0.08405800	          0.48427850	          0.07379459	         -0.42618680	          0.51536512	          0.06582632	         -0.14199094	          0.49779493	          0.06652135	         -0.37234810	          0.47779530	          0.03746834	         -0.14391856	          0.43722829	          0.04130803	         -0.38093796	          0.55406833	          1.17210066	         -0.27308288	          0.59097916	          1.09333348	         -0.27421963	          0.46068293	          1.21876800	         -0.28775403	          0.56584263	          1.17183602	         -0.23320967	          0.57019919	          1.17723620	         -0.30818528	          0.60712701	          0.03663107	         -0.08498360	          0.59587342	          0.03885483	         -0.42057580	          0.59098005	          0.52864134	         -0.05692122	          0.65943086	          0.52622199	         -0.35599238	          0.52636909	          0.58849967	         -0.09857630	          0.59841275	          0.59764493	         -0.38272220	          0.51533586	          0.50131911	         -0.10659020	          0.57433546	          0.51339775	         -0.38537765	          0.46624452	          0.18529896	         -0.02153927	          0.49057600	          0.20555177	         -0.48788178	          0.48064968	          0.14453585	         -0.09195527	          0.47871742	          0.15838905	         -0.41921940	
          0.02500000	          0.61238098	          0.80938458	         -0.25623792	         -4.08230591	          0.66448218	         -7.62979364	         -3.59469986	         -6.83808136	          2.28874278	         13.74611473	         -7.38181400	          0.00000000	          0.00000000	         -7.75149345	         -4.26983356	         -9.99796391	         12.81115818	         -2.93284917	          0.00000000	          0.00000000	          3.57071352	          5.65693712	          4.00461435	          0.54000950	          0.74309897	         -0.26406512	          0.53148949	          0.74477589	         -0.19948858	          0.54852957	          0.74142212	         -0.32864165	          0.47993809	          0.40656564	         -0.15607785	          0.48512897	          0.42417288	         -0.35314229	          0.51145285	          0.06688076	         -0.11943496	          0.49447688	          0.07032603	         -0.39079973	          0.61238098	          0.80938458	         -0.25623792	          0.59866703	          0.81208372	         -0.15229471	          0.62609494	          0.80668551	         -0.36018112	          0.45420644	          0.85567689	         -0.24466503	          0.45727614	          0.85379541	         -0.29965794	          0.47584301	          0.41416186	         -0.10175908	          0.48377323	          0.42863730	         -0.40744221	          0.48597026	          0.40664113	         -0.20778017	          0.49075168	          0.39976749	         -0.30543068	          0.49933544	          0.06957374	         -0.08404899	          0.48425359	          0.07382198	         -0.42618704	          0.51529658	          0.06587169	         -0.14200811	          0.49775949	          0.06654499	         -0.37233779	          0.47777897	          0.03748954	         -0.14392178	          0.43723103	          0.04130457	         -0.38093311	          0.55410713	          1.17213142	         -0.27308482	          0.59109360	          1.09339917	         -0.27418515	          0.46064302	          1.21873844	         -0.28776804	          0.56575251	          1.17183423	         -0.23315029	          0.57034707	          1.17732000	         -0.30815411	          0.60711533	          0.03664291	         -0.08497550	          0.59585607	          0.03889110	         -0.42058587	          0.59097618	          0.52863890	         -0.05690661	          0.65941715	          0.52625781	         -0.35599789	          0.52635705	          0.58851200	         -0.09855092	          0.59840155	          0.59767181	         -0.38270611	          0.51531881	          0.50132084	         -0.10652725	          0.57432544	          0.51346588	         -0.38536242	          0.46625108	          0.18530084	         -0.02153604	          0.49055952	          0.20557314	         -0.48788041	          0.48061535	          0.14454830	         -0.09189754	          0.47866744	          0.15843751	         -0.41923308	
          0.03333334	          0.61239207	          0.80939853	         -0.25621945	         -4.07599449	          0.66417700	         -7.63230515	         -3.60428429	         -6.83685350	          2.29855776	         13.74670410	         -7.37910604	          0.00000000	          0.00000000	         -7.76268148	         -4.27080393	        -10.00272846	         12.81194019	         -2.93028784	          0.00000000	          0.00000000	          3.58022022	          5.68809032	          4.10148048	          0.54002821	          0.74310482	         -0.26404846	          0.53150541	          0.74478185	         -0.19947229	          0.54855108	          0.74142778	         -0.32862464	          0.47993347	          0.40657058	         -0.15607236	          0.48512441	          0.42417738	         -0.35313675	          0.51142919	          0.06688455	         -0.11943001	          0.49444896	          0.07035096	         -0.39080080	          0.61239207	          0.80939853	         -0.25621945	          0.59867203	          0.81209821	         -0.15226468	          0.62611216	          0.80669880	         -0.36017424	          0.45423287	          0.85566449	         -0.24465793	          0.45728052	          0.85379595	         -0.29966050	          0.47584552	          0.41416433	         -0.10175271	          0.48376727	          0.42864409	         -0.40743643	          0.48598316	          0.40665504	         -0.20775086	          0.49063739	          0.39987653	         -0.30552751	          0.49931616	          0.06957871	         -0.08404265	          0.48422471	          0.07384837	         -0.42618772	          0.51517701	          0.06592965	         -0.14203414	          0.49771559	          0.06657460	         -0.37232691	          0.47776207	          0.03750445	         -0.14392449	          0.43723226	          0.04129819	         -0.38092902	          0.55398297	          1.17217791	         -0.27308849	          0.59100443	          1.09346354	         -0.27428803	          0.46058044	          1.21872270	         -0.28776947	          0.56569397	          1.17186630	         -0.23316720	          0.57016295	          1.17739153	         -0.30818811	          0.60710412	          0.03665674	         -0.08496962	          0.59583557	          0.03893691	         -0.42059714	          0.59097022	          0.52863789	         -0.05689319	          0.65941262	          0.52629685	         -0.35600120	          0.52631921	          0.58855021	         -0.09854173	          0.59835637	          0.59773540	         -0.38275650	          0.51530915	          0.50135291	         -0.10650928	          0.57427508	          0.51358038	         -0.38542286	          0.46625409	          0.18530165	         -0.02153574	          0.49054477	          0.20559262	         -0.48788053	          0.48058182	          0.14457937	         -0.09187684	          0.47859672	          0.15849750	         -0.41925403	
